<svg xmlns="http://www.w3.org/2000/svg"
shape-rendering="geometricPrecision"
width="4000" height="4000" viewBox="0 0 475 475"><rect width="100%" height="100%" fill="#FFFFFF" />
  <metadata>null</metadata>

<path d="
M 21.273 188.157
C 25.002 180.547 29.311 173.139 33.379 165.7
C 36.045 160.826 38.33 155.398 41.434 150.804
C 42.249 150.27 43.629 150.44 44.598 150.437
C 46.901 150.43 49.203 150.42 51.506 150.41
C 60.172 150.375 68.839 150.366 77.506 150.402
C 99.172 150.492 120.84 150.444 142.505 150.395
C 149.505 150.379 156.505 150.363 163.504 150.368
C 166.789 150.371 170.221 150.701 173.486 150.434
C 174.26 151.332 174.614 152.794 175.103 153.887
C 176.446 156.885 177.693 159.924 178.979 162.947
C 182.588 171.437 186.595 179.803 190.018 188.361
C 178.138 188.532 166.25 188.38 154.368 188.452
C 145.391 188.507 136.352 188.855 127.377 188.693
C 127.794 220.283 127.368 251.909 127.329 283.503
C 127.317 293.336 127.312 303.17 127.348 313.003
C 127.359 315.89 127.321 318.783 127.389 321.669
C 127.415 322.804 127.857 324.294 127.57 325.378
C 126.421 324.627 125.345 322.945 124.436 321.884
C 122.319 319.414 120.102 317.031 117.967 314.577
C 111.502 307.146 104.961 299.782 98.492 292.355
C 96.043 289.543 93.48 286.843 90.99 284.069
C 90.263 283.259 88.715 282.115 88.48 281.02
C 88.016 278.855 88.393 276.173 88.39 273.958
C 88.381 268.972 88.365 263.987 88.362 259.001
C 88.355 243.167 88.406 227.333 88.412 211.5
C 88.414 206.499 88.407 201.499 88.406 196.499
C 88.406 193.921 88.736 191.138 88.328 188.59
C 65.983 188.962 43.51 187.691 21.179 188.555
C 21.21 188.422 21.242 188.29 21.273 188.157 Z"
opacity="1" fill="rgb(38,32,36)" fill-rule="evenodd" />
<path d="
M 301.375 191.637
C 305.137 199.466 308.442 207.503 312.107 215.383
C 314.827 221.232 317.985 226.962 320.499 232.894
C 319.241 232.342 317.985 236.473 317.498 237.592
C 315.121 243.05 312.409 248.364 310.065 253.835
C 304.512 266.793 298.871 279.722 293.587 292.79
C 291.874 297.028 289.67 301.08 287.911 305.305
C 285.962 309.987 283.908 314.627 281.876 319.275
C 281.308 320.574 280.538 323.95 279.38 324.743
C 275.353 324.984 271.265 324.764 267.229 324.808
C 264.419 324.838 261.379 325.174 258.594 324.836
C 244.54 290.185 229.55 255.915 215.103 221.427
C 207.478 203.223 200.077 184.952 191.969 166.961
C 189.539 161.568 187.576 155.961 184.964 150.651
C 198.918 150.583 212.865 150.246 226.82 150.62
C 227.623 151.488 227.895 152.804 228.351 153.873
C 229.351 156.221 230.288 158.596 231.31 160.936
C 235.063 169.534 238.537 178.262 241.998 186.981
C 248.295 202.844 254.943 218.693 261.831 234.31
C 265.366 242.324 269.439 250.619 272.015 258.977
C 273.008 258.155 273.387 255.713 273.888 254.532
C 275.582 250.542 277.205 246.52 278.915 242.537
C 284.198 230.233 289.455 217.889 294.95 205.678
C 296.379 202.503 297.725 199.287 299.152 196.112
C 299.798 194.673 300.24 192.759 301.375 191.637 Z"
opacity="1" fill="rgb(174,174,174)" fill-rule="evenodd" />
<path d="
M 320.499 232.894
C 317.985 226.962 314.827 221.232 312.107 215.383
C 308.442 207.503 305.137 199.466 301.375 191.637
C 301.333 190.402 302.187 189.417 302.641 188.302
C 303.737 185.61 305 182.983 306.127 180.302
C 309.163 173.082 312.126 165.811 315.295 158.648
C 316.501 155.922 317.164 152.594 318.868 150.149
C 319.662 150.059 320.367 150.067 321.16 150.108
C 322.943 151.931 323.689 155.408 324.688 157.732
C 327.231 163.646 329.787 169.562 332.211 175.525
C 339.935 194.525 348.177 213.354 356.431 232.129
C 359.282 238.615 362.085 245.125 364.931 251.613
C 365.673 253.304 366.401 255.002 367.133 256.697
C 367.348 257.195 367.61 258.335 368.04 258.612
C 369.731 252.39 373.156 246.284 375.668 240.343
C 381.113 227.47 386.713 214.652 391.945 201.69
C 394.512 195.331 397.086 188.965 399.793 182.663
C 401.381 178.966 402.752 174.796 405.542 171.788
C 411.087 165.81 419.985 162.549 427.19 159.105
C 435.576 155.095 444.601 148.74 454.388 149.937
C 447.692 164.251 442.077 179.133 436.005 193.724
C 424.863 220.502 414.068 247.473 402.406 274.028
C 397.475 285.254 392.855 296.661 388.23 308.018
C 386.77 311.603 385.176 315.131 383.694 318.705
C 382.958 320.481 382.433 322.712 381.415 324.328
C 379.536 325.002 376.728 324.527 374.737 324.527
C 371.491 324.525 368.246 324.552 365 324.55
C 363.434 324.549 361.557 324.809 360.037 324.469
C 349.658 301.452 340.266 277.999 330.1 254.887
C 326.881 247.567 323.942 240.109 320.499 232.894 Z"
opacity="1" fill="rgb(143,143,143)" fill-rule="evenodd" />

</svg>